<mxfile host="Electron" modified="2023-11-16T15:28:37.710Z" agent="Mozilla/5.0 (X11; Linux x86_64) AppleWebKit/537.36 (KHTML, like Gecko) draw.io/22.1.2 Chrome/114.0.5735.289 Electron/25.9.4 Safari/537.36" etag="Bzz7t6fc39bvyw2SYANN" version="22.1.2" type="device">
  <diagram name="Page-1" id="9361dd3d-8414-5efd-6122-117bd74ce7a7">
    <mxGraphModel dx="234" dy="1606" grid="1" gridSize="10" guides="1" tooltips="1" connect="1" arrows="1" fold="1" page="0" pageScale="1.5" pageWidth="826" pageHeight="1169" background="none" math="0" shadow="0">
      <root>
        <mxCell id="0" />
        <mxCell id="1" parent="0" />
        <mxCell id="HCLRELm-QBbme1kzq8LL-94" value="" style="edgeStyle=none;endArrow=none;dashed=1;dashPattern=8 8;exitX=0.5;exitY=1;exitDx=0;exitDy=0;" parent="1" edge="1">
          <mxGeometry x="376.5711805555559" y="339.6971450617284" width="100" height="100" as="geometry">
            <mxPoint x="1432.5" y="-240" as="sourcePoint" />
            <mxPoint x="1430" y="1620" as="targetPoint" />
          </mxGeometry>
        </mxCell>
        <mxCell id="HCLRELm-QBbme1kzq8LL-98" value="Manage membership&#xa;GUI interface&#xa;" style="shadow=1;fillColor=#0050ef;strokeColor=#001DBC;fontSize=11;fontColor=#ffffff;" parent="1" vertex="1">
          <mxGeometry x="1530" y="-290" width="105" height="50" as="geometry" />
        </mxCell>
        <mxCell id="HCLRELm-QBbme1kzq8LL-99" value="Create" style="edgeStyle=none;verticalLabelPosition=top;verticalAlign=bottom;fontSize=9;" parent="1" edge="1">
          <mxGeometry x="220" y="92" width="100" height="100" as="geometry">
            <mxPoint x="1432.5" y="-220" as="sourcePoint" />
            <mxPoint x="1580" y="-220" as="targetPoint" />
          </mxGeometry>
        </mxCell>
        <mxCell id="7E_V4FD1QmApmL5yl7B_-73" value="" style="edgeStyle=none;endArrow=none;dashed=1;dashPattern=8 8;exitX=0.5;exitY=1;exitDx=0;exitDy=0;" parent="1" source="HCLRELm-QBbme1kzq8LL-98" target="7E_V4FD1QmApmL5yl7B_-72" edge="1">
          <mxGeometry x="376.5711805555559" y="339.6971450617284" width="100" height="100" as="geometry">
            <mxPoint x="1584.3700000000001" y="-160" as="sourcePoint" />
            <mxPoint x="1580.6200000000001" y="522" as="targetPoint" />
          </mxGeometry>
        </mxCell>
        <mxCell id="7E_V4FD1QmApmL5yl7B_-72" value="" style="fillColor=#CC4125;strokeColor=#660000" parent="1" vertex="1">
          <mxGeometry x="1580" y="-220" width="10" height="370" as="geometry" />
        </mxCell>
        <mxCell id="7E_V4FD1QmApmL5yl7B_-74" value="Controller:&#xa;Membership&#xa; manager&#xa;" style="shadow=1;fillColor=#0050ef;strokeColor=#001DBC;fontSize=11;fontColor=#ffffff;" parent="1" vertex="1">
          <mxGeometry x="1670" y="-290" width="105" height="50" as="geometry" />
        </mxCell>
        <mxCell id="7E_V4FD1QmApmL5yl7B_-75" value=" &#xa;User_info &#xa;" style="shadow=1;fillColor=#0050ef;strokeColor=#001DBC;fontSize=11;fontColor=#ffffff;" parent="1" vertex="1">
          <mxGeometry x="1800" y="-290" width="105" height="50" as="geometry" />
        </mxCell>
        <mxCell id="7E_V4FD1QmApmL5yl7B_-78" value="" style="edgeStyle=none;endArrow=none;dashed=1;dashPattern=8 8;exitX=0.5;exitY=1;exitDx=0;exitDy=0;" parent="1" source="7E_V4FD1QmApmL5yl7B_-102" target="7E_V4FD1QmApmL5yl7B_-77" edge="1">
          <mxGeometry x="376.5711805555559" y="339.6971450617284" width="100" height="100" as="geometry">
            <mxPoint x="1723.0900000000001" y="-150" as="sourcePoint" />
            <mxPoint x="1721.91" y="522" as="targetPoint" />
          </mxGeometry>
        </mxCell>
        <mxCell id="7E_V4FD1QmApmL5yl7B_-79" value="" style="edgeStyle=none;verticalLabelPosition=top;verticalAlign=bottom;fontSize=9;entryX=0;entryY=0;entryDx=0;entryDy=0;" parent="1" target="7E_V4FD1QmApmL5yl7B_-77" edge="1">
          <mxGeometry width="100" height="100" as="geometry">
            <mxPoint x="1590" y="-10" as="sourcePoint" />
            <mxPoint x="1710" y="-140" as="targetPoint" />
            <Array as="points" />
            <mxPoint as="offset" />
          </mxGeometry>
        </mxCell>
        <mxCell id="7E_V4FD1QmApmL5yl7B_-115" value="Load informations" style="edgeLabel;html=1;align=center;verticalAlign=middle;resizable=0;points=[];" parent="7E_V4FD1QmApmL5yl7B_-79" vertex="1" connectable="0">
          <mxGeometry relative="1" as="geometry">
            <mxPoint x="-4" y="-10" as="offset" />
          </mxGeometry>
        </mxCell>
        <mxCell id="7E_V4FD1QmApmL5yl7B_-81" value="FetchLoggedUserMbH" style="edgeStyle=none;verticalLabelPosition=top;verticalAlign=bottom;fontSize=9;entryX=0;entryY=0;entryDx=0;entryDy=0;endArrow=open;endFill=0;" parent="1" edge="1">
          <mxGeometry width="100" height="100" as="geometry">
            <mxPoint x="1719.5" y="10" as="sourcePoint" />
            <mxPoint x="1847.5" y="10" as="targetPoint" />
            <mxPoint x="-3" as="offset" />
          </mxGeometry>
        </mxCell>
        <mxCell id="7E_V4FD1QmApmL5yl7B_-84" value="" style="edgeStyle=none;endArrow=none;dashed=1;dashPattern=8 8;exitX=0.5;exitY=1;exitDx=0;exitDy=0;" parent="1" source="7E_V4FD1QmApmL5yl7B_-104" target="7E_V4FD1QmApmL5yl7B_-83" edge="1">
          <mxGeometry x="376.5711805555559" y="339.6971450617284" width="100" height="100" as="geometry">
            <mxPoint x="1852.16" y="-145" as="sourcePoint" />
            <mxPoint x="1852" y="300" as="targetPoint" />
          </mxGeometry>
        </mxCell>
        <mxCell id="7E_V4FD1QmApmL5yl7B_-83" value="" style="fillColor=#CC4125;strokeColor=#660000" parent="1" vertex="1">
          <mxGeometry x="1847.5" y="10" width="10" height="90" as="geometry" />
        </mxCell>
        <mxCell id="7E_V4FD1QmApmL5yl7B_-77" value="" style="fillColor=#CC4125;strokeColor=#660000" parent="1" vertex="1">
          <mxGeometry x="1717.5" y="-10" width="10" height="160" as="geometry" />
        </mxCell>
        <mxCell id="7E_V4FD1QmApmL5yl7B_-85" value="" style="endArrow=classic;html=1;rounded=0;endFill=1;" parent="1" edge="1">
          <mxGeometry width="50" height="50" relative="1" as="geometry">
            <mxPoint x="1860" y="18.960000000000008" as="sourcePoint" />
            <mxPoint x="1978" y="19" as="targetPoint" />
          </mxGeometry>
        </mxCell>
        <mxCell id="wDXu1goecoh-welNa3HZ-145" value="&lt;font size=&quot;1&quot;&gt;FetchUserHistory&lt;/font&gt;" style="edgeLabel;html=1;align=center;verticalAlign=middle;resizable=0;points=[];" parent="7E_V4FD1QmApmL5yl7B_-85" vertex="1" connectable="0">
          <mxGeometry x="0.4697" relative="1" as="geometry">
            <mxPoint x="-27" y="-9" as="offset" />
          </mxGeometry>
        </mxCell>
        <mxCell id="7E_V4FD1QmApmL5yl7B_-86" value="&#xa;   &#xa;Membership&#xa; &#xa;" style="shadow=1;fillColor=#0050ef;strokeColor=#001DBC;fontSize=11;fontColor=#ffffff;" parent="1" vertex="1">
          <mxGeometry x="1930" y="-290" width="105" height="50" as="geometry" />
        </mxCell>
        <mxCell id="7E_V4FD1QmApmL5yl7B_-90" value="&#xa;Membership_plans&#xa;" style="shadow=1;fillColor=#0050ef;strokeColor=#001DBC;fontSize=11;fontColor=#ffffff;" parent="1" vertex="1">
          <mxGeometry x="2060" y="-290" width="105" height="50" as="geometry" />
        </mxCell>
        <mxCell id="7E_V4FD1QmApmL5yl7B_-94" value="" style="edgeStyle=none;endArrow=none;dashed=1;dashPattern=8 8;exitX=0.5;exitY=1;exitDx=0;exitDy=0;" parent="1" source="7E_V4FD1QmApmL5yl7B_-106" target="7E_V4FD1QmApmL5yl7B_-88" edge="1">
          <mxGeometry x="376.5711805555559" y="339.6971450617284" width="100" height="100" as="geometry">
            <mxPoint x="1982.23" y="-150" as="sourcePoint" />
            <mxPoint x="1980" y="310" as="targetPoint" />
          </mxGeometry>
        </mxCell>
        <mxCell id="7E_V4FD1QmApmL5yl7B_-88" value="" style="fillColor=#CC4125;strokeColor=#660000" parent="1" vertex="1">
          <mxGeometry x="1977.5" y="20" width="10" height="60" as="geometry" />
        </mxCell>
        <mxCell id="7E_V4FD1QmApmL5yl7B_-91" value="" style="endArrow=open;html=1;rounded=0;entryX=0;entryY=0;entryDx=0;entryDy=0;endFill=0;" parent="1" target="7E_V4FD1QmApmL5yl7B_-93" edge="1">
          <mxGeometry width="50" height="50" relative="1" as="geometry">
            <mxPoint x="1730" y="60" as="sourcePoint" />
            <mxPoint x="2090" y="60" as="targetPoint" />
          </mxGeometry>
        </mxCell>
        <mxCell id="wDXu1goecoh-welNa3HZ-147" value="LoadPlans" style="edgeLabel;html=1;align=center;verticalAlign=middle;resizable=0;points=[];" parent="7E_V4FD1QmApmL5yl7B_-91" vertex="1" connectable="0">
          <mxGeometry x="0.5468" y="3" relative="1" as="geometry">
            <mxPoint x="13" y="-7" as="offset" />
          </mxGeometry>
        </mxCell>
        <mxCell id="7E_V4FD1QmApmL5yl7B_-97" value="" style="endArrow=open;html=1;rounded=0;exitX=0.5;exitY=1;exitDx=0;exitDy=0;endFill=0;dashed=1;" parent="1" source="7E_V4FD1QmApmL5yl7B_-93" edge="1">
          <mxGeometry width="50" height="50" relative="1" as="geometry">
            <mxPoint x="1910" y="140" as="sourcePoint" />
            <mxPoint x="1730" y="144" as="targetPoint" />
          </mxGeometry>
        </mxCell>
        <mxCell id="PkqEq7SKZQYqKFuMM7tG-13" value="Done" style="edgeLabel;html=1;align=center;verticalAlign=middle;resizable=0;points=[];" parent="7E_V4FD1QmApmL5yl7B_-97" vertex="1" connectable="0">
          <mxGeometry x="0.0735" y="-4" relative="1" as="geometry">
            <mxPoint x="13" y="-10" as="offset" />
          </mxGeometry>
        </mxCell>
        <mxCell id="7E_V4FD1QmApmL5yl7B_-101" value="Create" style="edgeStyle=none;verticalLabelPosition=top;verticalAlign=bottom;fontSize=9;entryX=0;entryY=0;entryDx=0;entryDy=0;endArrow=classic;endFill=1;" parent="1" edge="1">
          <mxGeometry width="100" height="100" as="geometry">
            <mxPoint x="1587.5" y="-210" as="sourcePoint" />
            <mxPoint x="1717.5" y="-210" as="targetPoint" />
            <Array as="points" />
            <mxPoint as="offset" />
          </mxGeometry>
        </mxCell>
        <mxCell id="7E_V4FD1QmApmL5yl7B_-103" value="" style="edgeStyle=none;endArrow=none;dashed=1;dashPattern=8 8;exitX=0.5;exitY=1;exitDx=0;exitDy=0;" parent="1" source="7E_V4FD1QmApmL5yl7B_-74" target="7E_V4FD1QmApmL5yl7B_-102" edge="1">
          <mxGeometry x="376.5711805555559" y="339.6971450617284" width="100" height="100" as="geometry">
            <mxPoint x="1723" y="-240" as="sourcePoint" />
            <mxPoint x="1724" y="-100" as="targetPoint" />
          </mxGeometry>
        </mxCell>
        <mxCell id="7E_V4FD1QmApmL5yl7B_-102" value="" style="fillColor=#CC4125;strokeColor=#660000" parent="1" vertex="1">
          <mxGeometry x="1717.5" y="-210" width="10" height="120" as="geometry" />
        </mxCell>
        <mxCell id="7E_V4FD1QmApmL5yl7B_-105" value="" style="edgeStyle=none;endArrow=none;dashed=1;dashPattern=8 8;exitX=0.5;exitY=1;exitDx=0;exitDy=0;" parent="1" source="7E_V4FD1QmApmL5yl7B_-75" target="7E_V4FD1QmApmL5yl7B_-104" edge="1">
          <mxGeometry x="376.5711805555559" y="339.6971450617284" width="100" height="100" as="geometry">
            <mxPoint x="1853" y="-240" as="sourcePoint" />
            <mxPoint x="1853" y="10" as="targetPoint" />
          </mxGeometry>
        </mxCell>
        <mxCell id="7E_V4FD1QmApmL5yl7B_-104" value="" style="fillColor=#CC4125;strokeColor=#660000" parent="1" vertex="1">
          <mxGeometry x="1847.5" y="-200" width="10" height="30" as="geometry" />
        </mxCell>
        <mxCell id="7E_V4FD1QmApmL5yl7B_-108" value="" style="edgeStyle=none;endArrow=none;dashed=1;dashPattern=8 8;exitX=0.5;exitY=1;exitDx=0;exitDy=0;" parent="1" source="7E_V4FD1QmApmL5yl7B_-86" target="7E_V4FD1QmApmL5yl7B_-106" edge="1">
          <mxGeometry x="376.5711805555559" y="339.6971450617284" width="100" height="100" as="geometry">
            <mxPoint x="1983" y="-240" as="sourcePoint" />
            <mxPoint x="1983" y="20" as="targetPoint" />
          </mxGeometry>
        </mxCell>
        <mxCell id="7E_V4FD1QmApmL5yl7B_-106" value="" style="fillColor=#CC4125;strokeColor=#660000" parent="1" vertex="1">
          <mxGeometry x="1975" y="-160" width="10" height="30" as="geometry" />
        </mxCell>
        <mxCell id="7E_V4FD1QmApmL5yl7B_-111" value="create" style="edgeStyle=none;verticalLabelPosition=top;verticalAlign=bottom;fontSize=9;entryX=0;entryY=0;entryDx=0;entryDy=0;endArrow=classic;endFill=1;" parent="1" target="7E_V4FD1QmApmL5yl7B_-104" edge="1">
          <mxGeometry width="100" height="100" as="geometry">
            <mxPoint x="1730" y="-200" as="sourcePoint" />
            <mxPoint x="1855.5" y="-180" as="targetPoint" />
            <mxPoint x="3" as="offset" />
          </mxGeometry>
        </mxCell>
        <mxCell id="7E_V4FD1QmApmL5yl7B_-112" value="Create" style="edgeStyle=none;verticalLabelPosition=top;verticalAlign=bottom;fontSize=9;entryX=0;entryY=0;entryDx=0;entryDy=0;endArrow=classic;endFill=1;" parent="1" target="7E_V4FD1QmApmL5yl7B_-106" edge="1">
          <mxGeometry width="100" height="100" as="geometry">
            <mxPoint x="1730" y="-160" as="sourcePoint" />
            <mxPoint x="1857.5" y="-130" as="targetPoint" />
            <mxPoint x="-44" as="offset" />
          </mxGeometry>
        </mxCell>
        <mxCell id="7E_V4FD1QmApmL5yl7B_-113" value="Create" style="edgeStyle=none;verticalLabelPosition=top;verticalAlign=bottom;fontSize=9;endArrow=classic;endFill=1;entryX=0;entryY=0;entryDx=0;entryDy=0;exitX=1;exitY=0.75;exitDx=0;exitDy=0;" parent="1" source="7E_V4FD1QmApmL5yl7B_-102" target="7E_V4FD1QmApmL5yl7B_-110" edge="1">
          <mxGeometry width="100" height="100" as="geometry">
            <mxPoint x="1727.5" y="-95" as="sourcePoint" />
            <mxPoint x="2100" y="-100" as="targetPoint" />
            <mxPoint x="-44" as="offset" />
          </mxGeometry>
        </mxCell>
        <mxCell id="7E_V4FD1QmApmL5yl7B_-116" value="" style="endArrow=open;html=1;rounded=0;exitX=0;exitY=1;exitDx=0;exitDy=0;endFill=0;dashed=1;" parent="1" source="7E_V4FD1QmApmL5yl7B_-83" edge="1">
          <mxGeometry width="50" height="50" relative="1" as="geometry">
            <mxPoint x="1820" y="110" as="sourcePoint" />
            <mxPoint x="1730" y="100" as="targetPoint" />
            <Array as="points" />
          </mxGeometry>
        </mxCell>
        <mxCell id="PkqEq7SKZQYqKFuMM7tG-12" value="Done" style="edgeLabel;html=1;align=center;verticalAlign=middle;resizable=0;points=[];" parent="7E_V4FD1QmApmL5yl7B_-116" vertex="1" connectable="0">
          <mxGeometry x="-0.2289" relative="1" as="geometry">
            <mxPoint x="-22" y="-10" as="offset" />
          </mxGeometry>
        </mxCell>
        <mxCell id="7E_V4FD1QmApmL5yl7B_-118" value="" style="endArrow=classic;html=1;rounded=0;entryX=0.132;entryY=0.13;entryDx=0;entryDy=0;entryPerimeter=0;" parent="1" edge="1">
          <mxGeometry width="50" height="50" relative="1" as="geometry">
            <mxPoint x="1430" y="210" as="sourcePoint" />
            <mxPoint x="1577.5000000000002" y="210.4000000000001" as="targetPoint" />
          </mxGeometry>
        </mxCell>
        <mxCell id="7E_V4FD1QmApmL5yl7B_-131" value="&lt;div&gt;Display Current&amp;nbsp;&lt;/div&gt;&lt;div&gt;membership history&lt;/div&gt;" style="edgeLabel;html=1;align=center;verticalAlign=middle;resizable=0;points=[];" parent="7E_V4FD1QmApmL5yl7B_-118" vertex="1" connectable="0">
          <mxGeometry x="0.2493" y="-1" relative="1" as="geometry">
            <mxPoint x="-12" y="-21" as="offset" />
          </mxGeometry>
        </mxCell>
        <mxCell id="7E_V4FD1QmApmL5yl7B_-120" value="" style="endArrow=classic;html=1;rounded=0;" parent="1" edge="1">
          <mxGeometry width="50" height="50" relative="1" as="geometry">
            <mxPoint x="1590" y="230" as="sourcePoint" />
            <mxPoint x="1720" y="230" as="targetPoint" />
          </mxGeometry>
        </mxCell>
        <mxCell id="wDXu1goecoh-welNa3HZ-148" value="GetMembershipHistory" style="edgeLabel;html=1;align=center;verticalAlign=middle;resizable=0;points=[];" parent="7E_V4FD1QmApmL5yl7B_-120" vertex="1" connectable="0">
          <mxGeometry x="0.1509" y="-2" relative="1" as="geometry">
            <mxPoint x="-15" y="-12" as="offset" />
          </mxGeometry>
        </mxCell>
        <mxCell id="7E_V4FD1QmApmL5yl7B_-122" value="" style="edgeStyle=none;endArrow=none;dashed=1;dashPattern=8 8;" parent="1" source="7E_V4FD1QmApmL5yl7B_-77" target="7E_V4FD1QmApmL5yl7B_-121" edge="1">
          <mxGeometry x="376.5711805555559" y="339.6971450617284" width="100" height="100" as="geometry">
            <mxPoint x="1722" y="150" as="sourcePoint" />
            <mxPoint x="1721.91" y="522" as="targetPoint" />
          </mxGeometry>
        </mxCell>
        <mxCell id="7E_V4FD1QmApmL5yl7B_-121" value="" style="fillColor=#CC4125;strokeColor=#660000" parent="1" vertex="1">
          <mxGeometry x="1717.5" y="230" width="10" height="80" as="geometry" />
        </mxCell>
        <mxCell id="7E_V4FD1QmApmL5yl7B_-126" value="" style="edgeStyle=none;endArrow=none;dashed=1;dashPattern=8 8;" parent="1" source="7E_V4FD1QmApmL5yl7B_-83" target="7E_V4FD1QmApmL5yl7B_-125" edge="1">
          <mxGeometry x="376.5711805555559" y="339.6971450617284" width="100" height="100" as="geometry">
            <mxPoint x="1852" y="90" as="sourcePoint" />
            <mxPoint x="1850" y="500" as="targetPoint" />
          </mxGeometry>
        </mxCell>
        <mxCell id="7E_V4FD1QmApmL5yl7B_-125" value="" style="fillColor=#CC4125;strokeColor=#660000" parent="1" vertex="1">
          <mxGeometry x="1847.5" y="240" width="10" height="40" as="geometry" />
        </mxCell>
        <mxCell id="7E_V4FD1QmApmL5yl7B_-127" value="" style="endArrow=classic;html=1;rounded=0;entryX=0;entryY=0;entryDx=0;entryDy=0;" parent="1" target="7E_V4FD1QmApmL5yl7B_-125" edge="1">
          <mxGeometry width="50" height="50" relative="1" as="geometry">
            <mxPoint x="1727.5" y="240" as="sourcePoint" />
            <mxPoint x="1840" y="240" as="targetPoint" />
          </mxGeometry>
        </mxCell>
        <mxCell id="wDXu1goecoh-welNa3HZ-149" value="GetMmbrshpHistory" style="edgeLabel;html=1;align=center;verticalAlign=middle;resizable=0;points=[];" parent="7E_V4FD1QmApmL5yl7B_-127" vertex="1" connectable="0">
          <mxGeometry x="-0.4099" relative="1" as="geometry">
            <mxPoint x="27" y="-10" as="offset" />
          </mxGeometry>
        </mxCell>
        <mxCell id="7E_V4FD1QmApmL5yl7B_-128" value="" style="endArrow=open;html=1;rounded=0;exitX=0;exitY=1;exitDx=0;exitDy=0;endFill=0;dashed=1;" parent="1" edge="1">
          <mxGeometry width="50" height="50" relative="1" as="geometry">
            <mxPoint x="1845.5" y="280" as="sourcePoint" />
            <mxPoint x="1727.5" y="280" as="targetPoint" />
          </mxGeometry>
        </mxCell>
        <mxCell id="PkqEq7SKZQYqKFuMM7tG-9" value="List Membership" style="edgeLabel;html=1;align=center;verticalAlign=middle;resizable=0;points=[];" parent="7E_V4FD1QmApmL5yl7B_-128" vertex="1" connectable="0">
          <mxGeometry x="0.0017" y="1" relative="1" as="geometry">
            <mxPoint y="-11" as="offset" />
          </mxGeometry>
        </mxCell>
        <mxCell id="7E_V4FD1QmApmL5yl7B_-129" value="" style="endArrow=open;html=1;rounded=0;exitX=0;exitY=1;exitDx=0;exitDy=0;endFill=0;dashed=1;" parent="1" source="7E_V4FD1QmApmL5yl7B_-121" edge="1">
          <mxGeometry width="50" height="50" relative="1" as="geometry">
            <mxPoint x="1705.5" y="310" as="sourcePoint" />
            <mxPoint x="1587.5" y="310" as="targetPoint" />
          </mxGeometry>
        </mxCell>
        <mxCell id="7E_V4FD1QmApmL5yl7B_-133" value="" style="edgeStyle=none;endArrow=none;dashed=1;dashPattern=8 8;" parent="1" source="7E_V4FD1QmApmL5yl7B_-72" target="7E_V4FD1QmApmL5yl7B_-132" edge="1">
          <mxGeometry x="376.5711805555559" y="339.6971450617284" width="100" height="100" as="geometry">
            <mxPoint x="1582" y="120" as="sourcePoint" />
            <mxPoint x="1581" y="910" as="targetPoint" />
          </mxGeometry>
        </mxCell>
        <mxCell id="7E_V4FD1QmApmL5yl7B_-132" value="" style="fillColor=#CC4125;strokeColor=#660000" parent="1" vertex="1">
          <mxGeometry x="1577.5" y="430" width="10" height="130" as="geometry" />
        </mxCell>
        <mxCell id="7E_V4FD1QmApmL5yl7B_-135" value="" style="edgeStyle=none;endArrow=none;dashed=1;dashPattern=8 8;" parent="1" source="7E_V4FD1QmApmL5yl7B_-121" target="7E_V4FD1QmApmL5yl7B_-134" edge="1">
          <mxGeometry x="376.5711805555559" y="339.6971450617284" width="100" height="100" as="geometry">
            <mxPoint x="1722" y="310" as="sourcePoint" />
            <mxPoint x="1722" y="950" as="targetPoint" />
          </mxGeometry>
        </mxCell>
        <mxCell id="7E_V4FD1QmApmL5yl7B_-134" value="" style="fillColor=#CC4125;strokeColor=#660000" parent="1" vertex="1">
          <mxGeometry x="1717.5" y="450" width="10" height="70" as="geometry" />
        </mxCell>
        <mxCell id="7E_V4FD1QmApmL5yl7B_-139" value="" style="endArrow=classic;html=1;rounded=0;entryX=0.132;entryY=0.13;entryDx=0;entryDy=0;entryPerimeter=0;" parent="1" edge="1">
          <mxGeometry width="50" height="50" relative="1" as="geometry">
            <mxPoint x="1430" y="430" as="sourcePoint" />
            <mxPoint x="1577.5000000000002" y="430.4000000000001" as="targetPoint" />
          </mxGeometry>
        </mxCell>
        <mxCell id="7E_V4FD1QmApmL5yl7B_-140" value="&lt;div&gt;Display available &lt;/div&gt;membership plans" style="edgeLabel;html=1;align=center;verticalAlign=middle;resizable=0;points=[];" parent="7E_V4FD1QmApmL5yl7B_-139" vertex="1" connectable="0">
          <mxGeometry x="0.2493" y="-1" relative="1" as="geometry">
            <mxPoint x="-12" y="-21" as="offset" />
          </mxGeometry>
        </mxCell>
        <mxCell id="7E_V4FD1QmApmL5yl7B_-141" value="" style="endArrow=classic;html=1;rounded=0;" parent="1" edge="1">
          <mxGeometry width="50" height="50" relative="1" as="geometry">
            <mxPoint x="1587.5" y="450" as="sourcePoint" />
            <mxPoint x="1717.5" y="450" as="targetPoint" />
          </mxGeometry>
        </mxCell>
        <mxCell id="wDXu1goecoh-welNa3HZ-150" value="GetPlans" style="edgeLabel;html=1;align=center;verticalAlign=middle;resizable=0;points=[];" parent="7E_V4FD1QmApmL5yl7B_-141" vertex="1" connectable="0">
          <mxGeometry x="0.2333" y="-2" relative="1" as="geometry">
            <mxPoint x="-17" y="-12" as="offset" />
          </mxGeometry>
        </mxCell>
        <mxCell id="7E_V4FD1QmApmL5yl7B_-142" value="" style="endArrow=classic;html=1;rounded=0;entryX=0;entryY=0;entryDx=0;entryDy=0;" parent="1" target="7E_V4FD1QmApmL5yl7B_-136" edge="1">
          <mxGeometry width="50" height="50" relative="1" as="geometry">
            <mxPoint x="1727.5" y="460" as="sourcePoint" />
            <mxPoint x="2100" y="460" as="targetPoint" />
          </mxGeometry>
        </mxCell>
        <mxCell id="wDXu1goecoh-welNa3HZ-151" value="GetPlans" style="edgeLabel;html=1;align=center;verticalAlign=middle;resizable=0;points=[];" parent="7E_V4FD1QmApmL5yl7B_-142" vertex="1" connectable="0">
          <mxGeometry x="-0.5129" y="-4" relative="1" as="geometry">
            <mxPoint x="85" y="-14" as="offset" />
          </mxGeometry>
        </mxCell>
        <mxCell id="7E_V4FD1QmApmL5yl7B_-136" value="" style="fillColor=#CC4125;strokeColor=#660000" parent="1" vertex="1">
          <mxGeometry x="2107.5" y="460" width="10" height="40" as="geometry" />
        </mxCell>
        <mxCell id="7E_V4FD1QmApmL5yl7B_-144" value="" style="endArrow=none;html=1;rounded=0;entryX=0;entryY=0;entryDx=0;entryDy=0;dashed=1;startArrow=open;startFill=0;endFill=0;" parent="1" edge="1">
          <mxGeometry width="50" height="50" relative="1" as="geometry">
            <mxPoint x="1727.5" y="500" as="sourcePoint" />
            <mxPoint x="2108" y="500" as="targetPoint" />
          </mxGeometry>
        </mxCell>
        <mxCell id="PkqEq7SKZQYqKFuMM7tG-14" value="List Membership_plan" style="edgeLabel;html=1;align=center;verticalAlign=middle;resizable=0;points=[];" parent="7E_V4FD1QmApmL5yl7B_-144" vertex="1" connectable="0">
          <mxGeometry x="-0.1185" relative="1" as="geometry">
            <mxPoint x="26" y="-15" as="offset" />
          </mxGeometry>
        </mxCell>
        <mxCell id="7E_V4FD1QmApmL5yl7B_-145" value="" style="endArrow=open;html=1;rounded=0;exitX=0;exitY=1;exitDx=0;exitDy=0;endFill=0;dashed=1;" parent="1" edge="1">
          <mxGeometry width="50" height="50" relative="1" as="geometry">
            <mxPoint x="1718" y="520" as="sourcePoint" />
            <mxPoint x="1587.5" y="520" as="targetPoint" />
          </mxGeometry>
        </mxCell>
        <mxCell id="PkqEq7SKZQYqKFuMM7tG-15" value="List Membership_plan" style="edgeLabel;html=1;align=center;verticalAlign=middle;resizable=0;points=[];" parent="7E_V4FD1QmApmL5yl7B_-145" vertex="1" connectable="0">
          <mxGeometry x="0.3303" y="1" relative="1" as="geometry">
            <mxPoint x="27" y="-21" as="offset" />
          </mxGeometry>
        </mxCell>
        <mxCell id="7E_V4FD1QmApmL5yl7B_-117" value="" style="fillColor=#CC4125;strokeColor=#660000" parent="1" vertex="1">
          <mxGeometry x="1577.5" y="210" width="10" height="130" as="geometry" />
        </mxCell>
        <mxCell id="7E_V4FD1QmApmL5yl7B_-150" value="" style="edgeStyle=none;endArrow=none;dashed=1;dashPattern=8 8;" parent="1" source="7E_V4FD1QmApmL5yl7B_-132" target="7E_V4FD1QmApmL5yl7B_-149" edge="1">
          <mxGeometry x="376.5711805555559" y="339.6971450617284" width="100" height="100" as="geometry">
            <mxPoint x="1582" y="560" as="sourcePoint" />
            <mxPoint x="1581" y="910" as="targetPoint" />
          </mxGeometry>
        </mxCell>
        <mxCell id="7E_V4FD1QmApmL5yl7B_-149" value="" style="fillColor=#CC4125;strokeColor=#660000" parent="1" vertex="1">
          <mxGeometry x="1577.5" y="630" width="10" height="90" as="geometry" />
        </mxCell>
        <mxCell id="7E_V4FD1QmApmL5yl7B_-151" value="" style="endArrow=classic;html=1;rounded=0;entryX=0.132;entryY=0.13;entryDx=0;entryDy=0;entryPerimeter=0;" parent="1" edge="1">
          <mxGeometry width="50" height="50" relative="1" as="geometry">
            <mxPoint x="1430" y="630" as="sourcePoint" />
            <mxPoint x="1577.5000000000002" y="630.4000000000001" as="targetPoint" />
          </mxGeometry>
        </mxCell>
        <mxCell id="7E_V4FD1QmApmL5yl7B_-152" value="New Membership selected" style="edgeLabel;html=1;align=center;verticalAlign=middle;resizable=0;points=[];" parent="7E_V4FD1QmApmL5yl7B_-151" vertex="1" connectable="0">
          <mxGeometry x="0.2493" y="-1" relative="1" as="geometry">
            <mxPoint x="-22" y="-11" as="offset" />
          </mxGeometry>
        </mxCell>
        <mxCell id="7E_V4FD1QmApmL5yl7B_-155" value="Notification_boundry" style="shadow=1;fillColor=#0050ef;strokeColor=#001DBC;fontSize=11;fontColor=#ffffff;" parent="1" vertex="1">
          <mxGeometry x="2350" y="-290" width="105" height="50" as="geometry" />
        </mxCell>
        <mxCell id="7E_V4FD1QmApmL5yl7B_-157" value="&#xa;Boundry:&#xa;Email_boundry&#xa;&#xa;" style="shadow=1;fillColor=#0050ef;strokeColor=#001DBC;fontSize=11;fontColor=#ffffff;" parent="1" vertex="1">
          <mxGeometry x="2480" y="-290" width="105" height="50" as="geometry" />
        </mxCell>
        <mxCell id="wDXu1goecoh-welNa3HZ-72" value="" style="edgeStyle=none;endArrow=none;dashed=1;dashPattern=8 8;" parent="1" source="7E_V4FD1QmApmL5yl7B_-134" target="wDXu1goecoh-welNa3HZ-71" edge="1">
          <mxGeometry x="376.5711805555559" y="339.6971450617284" width="100" height="100" as="geometry">
            <mxPoint x="1722" y="520" as="sourcePoint" />
            <mxPoint x="1722" y="950" as="targetPoint" />
          </mxGeometry>
        </mxCell>
        <mxCell id="wDXu1goecoh-welNa3HZ-71" value="" style="fillColor=#CC4125;strokeColor=#660000" parent="1" vertex="1">
          <mxGeometry x="1717.5" y="650" width="10" height="40" as="geometry" />
        </mxCell>
        <mxCell id="wDXu1goecoh-welNa3HZ-74" value="" style="endArrow=classic;html=1;rounded=0;" parent="1" edge="1">
          <mxGeometry width="50" height="50" relative="1" as="geometry">
            <mxPoint x="1587.5" y="650" as="sourcePoint" />
            <mxPoint x="1717.5" y="650" as="targetPoint" />
          </mxGeometry>
        </mxCell>
        <mxCell id="wDXu1goecoh-welNa3HZ-152" value="&lt;font style=&quot;font-size: 10px;&quot;&gt;SetNewMembership&lt;/font&gt;" style="edgeLabel;html=1;align=center;verticalAlign=middle;resizable=0;points=[];" parent="wDXu1goecoh-welNa3HZ-74" vertex="1" connectable="0">
          <mxGeometry x="-0.0011" y="3" relative="1" as="geometry">
            <mxPoint x="-2" y="-7" as="offset" />
          </mxGeometry>
        </mxCell>
        <mxCell id="wDXu1goecoh-welNa3HZ-81" value="" style="endArrow=classic;html=1;rounded=0;entryX=0.132;entryY=0.13;entryDx=0;entryDy=0;entryPerimeter=0;" parent="1" edge="1">
          <mxGeometry width="50" height="50" relative="1" as="geometry">
            <mxPoint x="1432.5" y="920" as="sourcePoint" />
            <mxPoint x="1580.0000000000002" y="920.4000000000001" as="targetPoint" />
          </mxGeometry>
        </mxCell>
        <mxCell id="wDXu1goecoh-welNa3HZ-82" value="&lt;font style=&quot;font-size: 8px;&quot;&gt;Confirm Payment Trough reception&lt;/font&gt;" style="edgeLabel;html=1;align=center;verticalAlign=middle;resizable=0;points=[];" parent="wDXu1goecoh-welNa3HZ-81" vertex="1" connectable="0">
          <mxGeometry x="0.2493" y="-1" relative="1" as="geometry">
            <mxPoint x="-25" y="-11" as="offset" />
          </mxGeometry>
        </mxCell>
        <mxCell id="wDXu1goecoh-welNa3HZ-84" value="" style="edgeStyle=none;endArrow=none;dashed=1;dashPattern=8 8;" parent="1" source="wDXu1goecoh-welNa3HZ-71" target="wDXu1goecoh-welNa3HZ-83" edge="1">
          <mxGeometry x="376.5711805555559" y="339.6971450617284" width="100" height="100" as="geometry">
            <mxPoint x="1722" y="690" as="sourcePoint" />
            <mxPoint x="1720" y="1481" as="targetPoint" />
          </mxGeometry>
        </mxCell>
        <mxCell id="wDXu1goecoh-welNa3HZ-83" value="" style="fillColor=#CC4125;strokeColor=#660000" parent="1" vertex="1">
          <mxGeometry x="1720" y="930" width="10" height="150" as="geometry" />
        </mxCell>
        <mxCell id="wDXu1goecoh-welNa3HZ-87" value="" style="edgeStyle=none;endArrow=none;dashed=1;dashPattern=8 8;" parent="1" source="7E_V4FD1QmApmL5yl7B_-125" target="wDXu1goecoh-welNa3HZ-86" edge="1">
          <mxGeometry x="376.5711805555559" y="339.6971450617284" width="100" height="100" as="geometry">
            <mxPoint x="1853" y="280" as="sourcePoint" />
            <mxPoint x="1853" y="1471" as="targetPoint" />
          </mxGeometry>
        </mxCell>
        <mxCell id="wDXu1goecoh-welNa3HZ-86" value="" style="fillColor=#CC4125;strokeColor=#660000" parent="1" vertex="1">
          <mxGeometry x="1850" y="950" width="10" height="100" as="geometry" />
        </mxCell>
        <mxCell id="wDXu1goecoh-welNa3HZ-89" value="" style="edgeStyle=none;endArrow=none;dashed=1;dashPattern=8 8;" parent="1" source="7E_V4FD1QmApmL5yl7B_-88" target="wDXu1goecoh-welNa3HZ-88" edge="1">
          <mxGeometry x="376.5711805555559" y="339.6971450617284" width="100" height="100" as="geometry">
            <mxPoint x="1983" y="50" as="sourcePoint" />
            <mxPoint x="1990" y="1562" as="targetPoint" />
          </mxGeometry>
        </mxCell>
        <mxCell id="wDXu1goecoh-welNa3HZ-88" value="" style="fillColor=#CC4125;strokeColor=#660000" parent="1" vertex="1">
          <mxGeometry x="1980" y="970" width="10" height="60" as="geometry" />
        </mxCell>
        <mxCell id="wDXu1goecoh-welNa3HZ-91" value="" style="edgeStyle=none;endArrow=none;dashed=1;dashPattern=8 8;exitX=0.5;exitY=1;exitDx=0;exitDy=0;" parent="1" source="7E_V4FD1QmApmL5yl7B_-136" edge="1">
          <mxGeometry x="376.5711805555559" y="339.6971450617284" width="100" height="100" as="geometry">
            <mxPoint x="2113" y="500" as="sourcePoint" />
            <mxPoint x="2113" y="990" as="targetPoint" />
          </mxGeometry>
        </mxCell>
        <mxCell id="wDXu1goecoh-welNa3HZ-93" value="" style="edgeStyle=none;endArrow=none;dashed=1;dashPattern=8 8;exitX=0.5;exitY=1;exitDx=0;exitDy=0;" parent="1" source="PkqEq7SKZQYqKFuMM7tG-29" target="wDXu1goecoh-welNa3HZ-92" edge="1">
          <mxGeometry x="376.5711805555559" y="339.6971450617284" width="100" height="100" as="geometry">
            <mxPoint x="2533.5" y="-240" as="sourcePoint" />
            <mxPoint x="2532" y="1430" as="targetPoint" />
          </mxGeometry>
        </mxCell>
        <mxCell id="wDXu1goecoh-welNa3HZ-92" value="" style="fillColor=#CC4125;strokeColor=#660000" parent="1" vertex="1">
          <mxGeometry x="2530" y="1140" width="10" height="110" as="geometry" />
        </mxCell>
        <mxCell id="wDXu1goecoh-welNa3HZ-95" value="" style="endArrow=classic;html=1;rounded=0;" parent="1" edge="1">
          <mxGeometry width="50" height="50" relative="1" as="geometry">
            <mxPoint x="1590" y="930" as="sourcePoint" />
            <mxPoint x="1720" y="930" as="targetPoint" />
          </mxGeometry>
        </mxCell>
        <mxCell id="PkqEq7SKZQYqKFuMM7tG-47" value="ConfirmNewMembership" style="edgeLabel;html=1;align=center;verticalAlign=middle;resizable=0;points=[];" parent="wDXu1goecoh-welNa3HZ-95" vertex="1" connectable="0">
          <mxGeometry x="0.0797" y="-1" relative="1" as="geometry">
            <mxPoint x="-2" y="-11" as="offset" />
          </mxGeometry>
        </mxCell>
        <mxCell id="wDXu1goecoh-welNa3HZ-98" value="" style="endArrow=classic;html=1;rounded=0;entryX=0;entryY=0;entryDx=0;entryDy=0;endFill=1;" parent="1" target="wDXu1goecoh-welNa3HZ-86" edge="1">
          <mxGeometry width="50" height="50" relative="1" as="geometry">
            <mxPoint x="1730" y="950" as="sourcePoint" />
            <mxPoint x="1842.5" y="950" as="targetPoint" />
          </mxGeometry>
        </mxCell>
        <mxCell id="wDXu1goecoh-welNa3HZ-154" value="ConfirmNewMembe" style="edgeLabel;html=1;align=center;verticalAlign=middle;resizable=0;points=[];" parent="wDXu1goecoh-welNa3HZ-98" vertex="1" connectable="0">
          <mxGeometry x="0.0663" y="-1" relative="1" as="geometry">
            <mxPoint x="-4" y="-11" as="offset" />
          </mxGeometry>
        </mxCell>
        <mxCell id="wDXu1goecoh-welNa3HZ-99" value="" style="endArrow=classic;html=1;rounded=0;" parent="1" edge="1">
          <mxGeometry width="50" height="50" relative="1" as="geometry">
            <mxPoint x="1862.5" y="970" as="sourcePoint" />
            <mxPoint x="1980" y="970" as="targetPoint" />
          </mxGeometry>
        </mxCell>
        <mxCell id="wDXu1goecoh-welNa3HZ-155" value="WriteNewMembeship" style="edgeLabel;html=1;align=center;verticalAlign=middle;resizable=0;points=[];" parent="wDXu1goecoh-welNa3HZ-99" vertex="1" connectable="0">
          <mxGeometry x="-0.0265" relative="1" as="geometry">
            <mxPoint y="-10" as="offset" />
          </mxGeometry>
        </mxCell>
        <mxCell id="wDXu1goecoh-welNa3HZ-111" value="" style="edgeStyle=none;endArrow=none;dashed=1;dashPattern=8 8;" parent="1" source="PkqEq7SKZQYqKFuMM7tG-38" target="wDXu1goecoh-welNa3HZ-110" edge="1">
          <mxGeometry x="376.5711805555559" y="339.6971450617284" width="100" height="100" as="geometry">
            <mxPoint x="1582" y="720" as="sourcePoint" />
            <mxPoint x="1581" y="1490" as="targetPoint" />
          </mxGeometry>
        </mxCell>
        <mxCell id="wDXu1goecoh-welNa3HZ-110" value="" style="fillColor=#CC4125;strokeColor=#660000" parent="1" vertex="1">
          <mxGeometry x="1580" y="1330" width="10" height="230" as="geometry" />
        </mxCell>
        <mxCell id="wDXu1goecoh-welNa3HZ-124" value="" style="edgeStyle=none;endArrow=none;dashed=1;dashPattern=8 8;" parent="1" source="wDXu1goecoh-welNa3HZ-86" target="wDXu1goecoh-welNa3HZ-123" edge="1">
          <mxGeometry x="376.5711805555559" y="339.6971450617284" width="100" height="100" as="geometry">
            <mxPoint x="1855.5" y="1050" as="sourcePoint" />
            <mxPoint x="1855.5" y="1581" as="targetPoint" />
          </mxGeometry>
        </mxCell>
        <mxCell id="wDXu1goecoh-welNa3HZ-123" value="" style="shape=mxgraph.sysml.x;" parent="1" vertex="1">
          <mxGeometry x="1845" y="1350" width="20" height="30" as="geometry" />
        </mxCell>
        <mxCell id="wDXu1goecoh-welNa3HZ-127" value="" style="edgeStyle=none;endArrow=none;dashed=1;dashPattern=8 8;" parent="1" source="wDXu1goecoh-welNa3HZ-88" target="wDXu1goecoh-welNa3HZ-126" edge="1">
          <mxGeometry x="376.5711805555559" y="339.6971450617284" width="100" height="100" as="geometry">
            <mxPoint x="1985.5" y="1030" as="sourcePoint" />
            <mxPoint x="1992.5" y="1672" as="targetPoint" />
          </mxGeometry>
        </mxCell>
        <mxCell id="wDXu1goecoh-welNa3HZ-126" value="" style="shape=mxgraph.sysml.x;" parent="1" vertex="1">
          <mxGeometry x="1980" y="1380" width="20" height="30" as="geometry" />
        </mxCell>
        <mxCell id="wDXu1goecoh-welNa3HZ-129" value="" style="edgeStyle=none;endArrow=none;dashed=1;dashPattern=8 8;" parent="1" target="wDXu1goecoh-welNa3HZ-128" edge="1">
          <mxGeometry x="376.5711805555559" y="339.6971450617284" width="100" height="100" as="geometry">
            <mxPoint x="2115" y="990" as="sourcePoint" />
            <mxPoint x="2115.5" y="1560" as="targetPoint" />
          </mxGeometry>
        </mxCell>
        <mxCell id="wDXu1goecoh-welNa3HZ-128" value="" style="shape=mxgraph.sysml.x;" parent="1" vertex="1">
          <mxGeometry x="2105" y="1420" width="20" height="30" as="geometry" />
        </mxCell>
        <mxCell id="wDXu1goecoh-welNa3HZ-131" value="" style="edgeStyle=none;endArrow=none;dashed=1;dashPattern=8 8;exitX=0.5;exitY=1;exitDx=0;exitDy=0;" parent="1" source="wDXu1goecoh-welNa3HZ-94" target="wDXu1goecoh-welNa3HZ-130" edge="1">
          <mxGeometry x="376.5711805555559" y="339.6971450617284" width="100" height="100" as="geometry">
            <mxPoint x="2402" y="-240" as="sourcePoint" />
            <mxPoint x="2400" y="1450" as="targetPoint" />
          </mxGeometry>
        </mxCell>
        <mxCell id="wDXu1goecoh-welNa3HZ-130" value="" style="shape=mxgraph.sysml.x;" parent="1" vertex="1">
          <mxGeometry x="2390" y="1470" width="20" height="30" as="geometry" />
        </mxCell>
        <mxCell id="wDXu1goecoh-welNa3HZ-133" value="" style="edgeStyle=none;endArrow=none;dashed=1;dashPattern=8 8;exitX=0.5;exitY=1;exitDx=0;exitDy=0;" parent="1" source="wDXu1goecoh-welNa3HZ-92" target="wDXu1goecoh-welNa3HZ-132" edge="1">
          <mxGeometry x="376.5711805555559" y="339.6971450617284" width="100" height="100" as="geometry">
            <mxPoint x="2535.5" y="1130" as="sourcePoint" />
            <mxPoint x="2534.5" y="1570" as="targetPoint" />
          </mxGeometry>
        </mxCell>
        <mxCell id="wDXu1goecoh-welNa3HZ-132" value="" style="shape=mxgraph.sysml.x;" parent="1" vertex="1">
          <mxGeometry x="2525" y="1510" width="20" height="30" as="geometry" />
        </mxCell>
        <mxCell id="wDXu1goecoh-welNa3HZ-134" value="" style="endArrow=open;html=1;rounded=0;endFill=0;" parent="1" edge="1">
          <mxGeometry width="50" height="50" relative="1" as="geometry">
            <mxPoint x="1732.5" y="1360" as="sourcePoint" />
            <mxPoint x="1842.5" y="1360" as="targetPoint" />
          </mxGeometry>
        </mxCell>
        <mxCell id="wDXu1goecoh-welNa3HZ-164" value="Destroy" style="edgeLabel;html=1;align=center;verticalAlign=middle;resizable=0;points=[];" parent="wDXu1goecoh-welNa3HZ-134" vertex="1" connectable="0">
          <mxGeometry x="0.0831" y="-3" relative="1" as="geometry">
            <mxPoint y="-13" as="offset" />
          </mxGeometry>
        </mxCell>
        <mxCell id="wDXu1goecoh-welNa3HZ-135" value="" style="endArrow=open;html=1;rounded=0;endFill=0;" parent="1" target="wDXu1goecoh-welNa3HZ-130" edge="1">
          <mxGeometry width="50" height="50" relative="1" as="geometry">
            <mxPoint x="2260" y="1480" as="sourcePoint" />
            <mxPoint x="1982.5" y="1484.41" as="targetPoint" />
          </mxGeometry>
        </mxCell>
        <mxCell id="wDXu1goecoh-welNa3HZ-136" value="" style="endArrow=openThin;html=1;rounded=0;endFill=0;" parent="1" edge="1">
          <mxGeometry width="50" height="50" relative="1" as="geometry">
            <mxPoint x="1735" y="1434.41" as="sourcePoint" />
            <mxPoint x="2102.5" y="1434" as="targetPoint" />
          </mxGeometry>
        </mxCell>
        <mxCell id="wDXu1goecoh-welNa3HZ-138" value="" style="endArrow=open;html=1;rounded=0;entryX=0.375;entryY=0.48;entryDx=0;entryDy=0;entryPerimeter=0;endFill=0;exitX=1;exitY=0.75;exitDx=0;exitDy=0;" parent="1" source="WzeVtz9jsi48SjQcjpXO-2" target="wDXu1goecoh-welNa3HZ-132" edge="1">
          <mxGeometry width="50" height="50" relative="1" as="geometry">
            <mxPoint x="1730" y="1524.41" as="sourcePoint" />
            <mxPoint x="1840" y="1524.41" as="targetPoint" />
          </mxGeometry>
        </mxCell>
        <mxCell id="wDXu1goecoh-welNa3HZ-139" value="" style="shape=mxgraph.sysml.x;" parent="1" vertex="1">
          <mxGeometry x="1715" y="1550" width="20" height="30" as="geometry" />
        </mxCell>
        <mxCell id="wDXu1goecoh-welNa3HZ-141" value="" style="endArrow=open;html=1;rounded=0;exitX=0;exitY=1;exitDx=0;exitDy=0;endFill=0;dashed=1;" parent="1" edge="1">
          <mxGeometry width="50" height="50" relative="1" as="geometry">
            <mxPoint x="1720" y="1548.82" as="sourcePoint" />
            <mxPoint x="1589.5" y="1548.82" as="targetPoint" />
          </mxGeometry>
        </mxCell>
        <mxCell id="wDXu1goecoh-welNa3HZ-142" value="" style="endArrow=open;html=1;rounded=0;endFill=0;dashed=1;exitX=0.25;exitY=1;exitDx=0;exitDy=0;" parent="1" edge="1">
          <mxGeometry width="50" height="50" relative="1" as="geometry">
            <mxPoint x="1580" y="1280" as="sourcePoint" />
            <mxPoint x="1430" y="1280" as="targetPoint" />
          </mxGeometry>
        </mxCell>
        <mxCell id="wDXu1goecoh-welNa3HZ-143" value="" style="endArrow=open;html=1;rounded=0;endFill=0;dashed=1;exitX=0.25;exitY=1;exitDx=0;exitDy=0;" parent="1" edge="1">
          <mxGeometry width="50" height="50" relative="1" as="geometry">
            <mxPoint x="1580" y="1560" as="sourcePoint" />
            <mxPoint x="1430" y="1560" as="targetPoint" />
          </mxGeometry>
        </mxCell>
        <mxCell id="wDXu1goecoh-welNa3HZ-144" value="" style="shape=mxgraph.sysml.x;" parent="1" vertex="1">
          <mxGeometry x="1575" y="1560" width="20" height="30" as="geometry" />
        </mxCell>
        <mxCell id="wDXu1goecoh-welNa3HZ-78" value="" style="fillColor=#CC4125;strokeColor=#660000" parent="1" vertex="1">
          <mxGeometry x="1580" y="920" width="10" height="360" as="geometry" />
        </mxCell>
        <mxCell id="wDXu1goecoh-welNa3HZ-160" value="" style="endArrow=classic;html=1;rounded=0;entryX=0.132;entryY=0.13;entryDx=0;entryDy=0;entryPerimeter=0;" parent="1" edge="1">
          <mxGeometry width="50" height="50" relative="1" as="geometry">
            <mxPoint x="1432.5" y="1330" as="sourcePoint" />
            <mxPoint x="1580.0000000000002" y="1330.4" as="targetPoint" />
          </mxGeometry>
        </mxCell>
        <mxCell id="wDXu1goecoh-welNa3HZ-161" value="Destroy" style="edgeLabel;html=1;align=center;verticalAlign=middle;resizable=0;points=[];" parent="wDXu1goecoh-welNa3HZ-160" vertex="1" connectable="0">
          <mxGeometry x="0.2493" y="-1" relative="1" as="geometry">
            <mxPoint x="-12" y="-21" as="offset" />
          </mxGeometry>
        </mxCell>
        <mxCell id="wDXu1goecoh-welNa3HZ-162" value="" style="endArrow=open;html=1;rounded=0;entryX=0.132;entryY=0.13;entryDx=0;entryDy=0;entryPerimeter=0;endFill=0;" parent="1" edge="1">
          <mxGeometry width="50" height="50" relative="1" as="geometry">
            <mxPoint x="1590" y="1340" as="sourcePoint" />
            <mxPoint x="1722.5000000000002" y="1340.4" as="targetPoint" />
          </mxGeometry>
        </mxCell>
        <mxCell id="wDXu1goecoh-welNa3HZ-163" value="Destroy" style="edgeLabel;html=1;align=center;verticalAlign=middle;resizable=0;points=[];" parent="wDXu1goecoh-welNa3HZ-162" vertex="1" connectable="0">
          <mxGeometry x="0.2493" y="-1" relative="1" as="geometry">
            <mxPoint x="-12" y="-21" as="offset" />
          </mxGeometry>
        </mxCell>
        <mxCell id="wDXu1goecoh-welNa3HZ-165" value="Destroy" style="text;html=1;align=center;verticalAlign=middle;resizable=0;points=[];autosize=1;strokeColor=none;fillColor=none;" parent="1" vertex="1">
          <mxGeometry x="1903.5" y="1408" width="60" height="30" as="geometry" />
        </mxCell>
        <mxCell id="wDXu1goecoh-welNa3HZ-166" value="Destroy" style="text;html=1;align=center;verticalAlign=middle;resizable=0;points=[];autosize=1;strokeColor=none;fillColor=none;" parent="1" vertex="1">
          <mxGeometry x="1930" y="1458" width="60" height="30" as="geometry" />
        </mxCell>
        <mxCell id="wDXu1goecoh-welNa3HZ-167" value="Destroy" style="text;html=1;align=center;verticalAlign=middle;resizable=0;points=[];autosize=1;strokeColor=none;fillColor=none;" parent="1" vertex="1">
          <mxGeometry x="1923.5" y="1488" width="60" height="30" as="geometry" />
        </mxCell>
        <mxCell id="wDXu1goecoh-welNa3HZ-168" value="&lt;font style=&quot;font-size: 23px;&quot;&gt;New membership invoice creation&lt;/font&gt;" style="text;html=1;align=center;verticalAlign=middle;resizable=0;points=[];autosize=1;strokeColor=none;fillColor=none;" parent="1" vertex="1">
          <mxGeometry x="1587.5" y="-420" width="370" height="40" as="geometry" />
        </mxCell>
        <mxCell id="7E_V4FD1QmApmL5yl7B_-143" value="" style="edgeStyle=none;endArrow=none;dashed=1;dashPattern=8 8;exitX=0.5;exitY=1;exitDx=0;exitDy=0;" parent="1" source="7E_V4FD1QmApmL5yl7B_-90" target="7E_V4FD1QmApmL5yl7B_-136" edge="1">
          <mxGeometry x="376.5711805555559" y="339.6971450617284" width="100" height="100" as="geometry">
            <mxPoint x="2113" y="-240" as="sourcePoint" />
            <mxPoint x="2110" y="1000" as="targetPoint" />
          </mxGeometry>
        </mxCell>
        <mxCell id="7E_V4FD1QmApmL5yl7B_-110" value="" style="fillColor=#CC4125;strokeColor=#660000" parent="1" vertex="1">
          <mxGeometry x="2107.5" y="-120" width="10" height="30" as="geometry" />
        </mxCell>
        <mxCell id="wDXu1goecoh-welNa3HZ-140" value="" style="edgeStyle=none;endArrow=none;dashed=1;dashPattern=8 8;" parent="1" source="wDXu1goecoh-welNa3HZ-83" target="wDXu1goecoh-welNa3HZ-139" edge="1">
          <mxGeometry x="376.5711805555559" y="339.6971450617284" width="100" height="100" as="geometry">
            <mxPoint x="1724.5" y="1260" as="sourcePoint" />
            <mxPoint x="1722.5" y="1591" as="targetPoint" />
          </mxGeometry>
        </mxCell>
        <mxCell id="wDXu1goecoh-welNa3HZ-112" value="" style="fillColor=#CC4125;strokeColor=#660000" parent="1" vertex="1">
          <mxGeometry x="1720" y="1340" width="10" height="210" as="geometry" />
        </mxCell>
        <mxCell id="I_3AtDSs_hUUvyQuBtnc-2" value="User" style="shape=umlActor;verticalLabelPosition=bottom;verticalAlign=top;html=1;outlineConnect=0;" parent="1" vertex="1">
          <mxGeometry x="1420" y="-320" width="30" height="60" as="geometry" />
        </mxCell>
        <mxCell id="I_3AtDSs_hUUvyQuBtnc-7" value="Boundary" style="shape=note;whiteSpace=wrap;html=1;backgroundOutline=1;darkOpacity=0.05;size=15;fillColor=#a0522d;fontColor=#ffffff;strokeColor=#6D1F00;" parent="1" vertex="1">
          <mxGeometry x="1530" y="-340" width="100" height="40" as="geometry" />
        </mxCell>
        <mxCell id="I_3AtDSs_hUUvyQuBtnc-8" value="Controller" style="shape=note;whiteSpace=wrap;html=1;backgroundOutline=1;darkOpacity=0.05;size=15;fillColor=#a0522d;fontColor=#ffffff;strokeColor=#6D1F00;" parent="1" vertex="1">
          <mxGeometry x="1670" y="-340" width="100" height="40" as="geometry" />
        </mxCell>
        <mxCell id="I_3AtDSs_hUUvyQuBtnc-9" value="Boundry:" style="shape=note;whiteSpace=wrap;html=1;backgroundOutline=1;darkOpacity=0.05;size=15;fillColor=#a0522d;fontColor=#ffffff;strokeColor=#6D1F00;" parent="1" vertex="1">
          <mxGeometry x="2480" y="-340" width="100" height="40" as="geometry" />
        </mxCell>
        <mxCell id="I_3AtDSs_hUUvyQuBtnc-10" value="Boundry" style="shape=note;whiteSpace=wrap;html=1;backgroundOutline=1;darkOpacity=0.05;size=15;fillColor=#a0522d;fontColor=#ffffff;strokeColor=#6D1F00;" parent="1" vertex="1">
          <mxGeometry x="2350" y="-340" width="100" height="40" as="geometry" />
        </mxCell>
        <mxCell id="I_3AtDSs_hUUvyQuBtnc-11" value="Entity" style="shape=note;whiteSpace=wrap;html=1;backgroundOutline=1;darkOpacity=0.05;size=15;fillColor=#a0522d;fontColor=#ffffff;strokeColor=#6D1F00;" parent="1" vertex="1">
          <mxGeometry x="1800" y="-340" width="100" height="40" as="geometry" />
        </mxCell>
        <mxCell id="I_3AtDSs_hUUvyQuBtnc-12" value="Entity" style="shape=note;whiteSpace=wrap;html=1;backgroundOutline=1;darkOpacity=0.05;size=15;fillColor=#a0522d;fontColor=#ffffff;strokeColor=#6D1F00;" parent="1" vertex="1">
          <mxGeometry x="1930" y="-340" width="100" height="40" as="geometry" />
        </mxCell>
        <mxCell id="I_3AtDSs_hUUvyQuBtnc-14" value="Entity" style="shape=note;whiteSpace=wrap;html=1;backgroundOutline=1;darkOpacity=0.05;size=15;fillColor=#a0522d;fontColor=#ffffff;strokeColor=#6D1F00;" parent="1" vertex="1">
          <mxGeometry x="2060" y="-340" width="100" height="40" as="geometry" />
        </mxCell>
        <mxCell id="7E_V4FD1QmApmL5yl7B_-93" value="" style="fillColor=#CC4125;strokeColor=#660000" parent="1" vertex="1">
          <mxGeometry x="2107.5" y="59.39" width="10" height="85" as="geometry" />
        </mxCell>
        <mxCell id="PkqEq7SKZQYqKFuMM7tG-6" value="" style="endArrow=open;html=1;rounded=0;exitX=0;exitY=1;exitDx=0;exitDy=0;endFill=0;dashed=1;" parent="1" edge="1">
          <mxGeometry width="50" height="50" relative="1" as="geometry">
            <mxPoint x="1975.5" y="80" as="sourcePoint" />
            <mxPoint x="1857.5" y="80" as="targetPoint" />
            <Array as="points">
              <mxPoint x="1927.5" y="80" />
            </Array>
          </mxGeometry>
        </mxCell>
        <mxCell id="PkqEq7SKZQYqKFuMM7tG-7" value="List Membership" style="edgeLabel;html=1;align=center;verticalAlign=middle;resizable=0;points=[];" parent="PkqEq7SKZQYqKFuMM7tG-6" vertex="1" connectable="0">
          <mxGeometry x="0.0467" y="-1" relative="1" as="geometry">
            <mxPoint x="7" y="-9" as="offset" />
          </mxGeometry>
        </mxCell>
        <mxCell id="PkqEq7SKZQYqKFuMM7tG-10" value="&lt;span style=&quot;color: rgb(240, 240, 240); font-family: Helvetica; font-size: 11px; font-style: normal; font-variant-ligatures: normal; font-variant-caps: normal; font-weight: 400; letter-spacing: normal; orphans: 2; text-align: center; text-indent: 0px; text-transform: none; widows: 2; word-spacing: 0px; -webkit-text-stroke-width: 0px; background-color: rgb(24, 20, 29); text-decoration-thickness: initial; text-decoration-style: initial; text-decoration-color: initial; float: none; display: inline !important;&quot;&gt;List Membership&lt;/span&gt;" style="text;whiteSpace=wrap;html=1;" parent="1" vertex="1">
          <mxGeometry x="1602.5" y="280" width="110" height="40" as="geometry" />
        </mxCell>
        <mxCell id="PkqEq7SKZQYqKFuMM7tG-16" value="" style="endArrow=open;html=1;rounded=0;endFill=0;" parent="1" target="wDXu1goecoh-welNa3HZ-126" edge="1">
          <mxGeometry width="50" height="50" relative="1" as="geometry">
            <mxPoint x="1740" y="1394.23" as="sourcePoint" />
            <mxPoint x="1850" y="1394.23" as="targetPoint" />
          </mxGeometry>
        </mxCell>
        <mxCell id="PkqEq7SKZQYqKFuMM7tG-17" value="Destroy" style="edgeLabel;html=1;align=center;verticalAlign=middle;resizable=0;points=[];" parent="PkqEq7SKZQYqKFuMM7tG-16" vertex="1" connectable="0">
          <mxGeometry x="0.0831" y="-3" relative="1" as="geometry">
            <mxPoint y="-13" as="offset" />
          </mxGeometry>
        </mxCell>
        <mxCell id="PkqEq7SKZQYqKFuMM7tG-19" value="Controller" style="shape=note;whiteSpace=wrap;html=1;backgroundOutline=1;darkOpacity=0.05;size=15;fillColor=#a0522d;fontColor=#ffffff;strokeColor=#6D1F00;" parent="1" vertex="1">
          <mxGeometry x="2210" y="-340" width="100" height="40" as="geometry" />
        </mxCell>
        <mxCell id="PkqEq7SKZQYqKFuMM7tG-20" value="Controller:&#xa;Payment Controller&#xa;" style="shadow=1;fillColor=#0050ef;strokeColor=#001DBC;fontSize=11;fontColor=#ffffff;" parent="1" vertex="1">
          <mxGeometry x="2210" y="-290" width="105" height="50" as="geometry" />
        </mxCell>
        <mxCell id="PkqEq7SKZQYqKFuMM7tG-22" value="Create" style="edgeStyle=none;verticalLabelPosition=top;verticalAlign=bottom;fontSize=9;endArrow=classic;endFill=1;entryX=0;entryY=0;entryDx=0;entryDy=0;exitX=1.1;exitY=0.376;exitDx=0;exitDy=0;exitPerimeter=0;" parent="1" source="7E_V4FD1QmApmL5yl7B_-72" target="PkqEq7SKZQYqKFuMM7tG-24" edge="1">
          <mxGeometry width="100" height="100" as="geometry">
            <mxPoint x="1727.5" y="-80" as="sourcePoint" />
            <mxPoint x="2240" y="-80" as="targetPoint" />
            <mxPoint x="-44" as="offset" />
          </mxGeometry>
        </mxCell>
        <mxCell id="PkqEq7SKZQYqKFuMM7tG-25" value="" style="edgeStyle=none;endArrow=none;dashed=1;dashPattern=8 8;exitX=0.5;exitY=1;exitDx=0;exitDy=0;" parent="1" target="PkqEq7SKZQYqKFuMM7tG-24" edge="1">
          <mxGeometry x="376.5711805555559" y="339.6971450617284" width="100" height="100" as="geometry">
            <mxPoint x="2261" y="-230" as="sourcePoint" />
            <mxPoint x="2259" y="1480" as="targetPoint" />
          </mxGeometry>
        </mxCell>
        <mxCell id="PkqEq7SKZQYqKFuMM7tG-24" value="" style="fillColor=#CC4125;strokeColor=#660000" parent="1" vertex="1">
          <mxGeometry x="2257.5" y="-80" width="10" height="40" as="geometry" />
        </mxCell>
        <mxCell id="PkqEq7SKZQYqKFuMM7tG-28" value="" style="edgeStyle=none;endArrow=none;dashed=1;dashPattern=8 8;exitX=0.5;exitY=1;exitDx=0;exitDy=0;" parent="1" target="PkqEq7SKZQYqKFuMM7tG-27" edge="1">
          <mxGeometry x="376.5711805555559" y="339.6971450617284" width="100" height="100" as="geometry">
            <mxPoint x="2402" y="-240" as="sourcePoint" />
            <mxPoint x="2400" y="1470" as="targetPoint" />
          </mxGeometry>
        </mxCell>
        <mxCell id="PkqEq7SKZQYqKFuMM7tG-27" value="" style="fillColor=#CC4125;strokeColor=#660000" parent="1" vertex="1">
          <mxGeometry x="2397.5" y="-80" width="10" height="10" as="geometry" />
        </mxCell>
        <mxCell id="PkqEq7SKZQYqKFuMM7tG-30" value="" style="edgeStyle=none;endArrow=none;dashed=1;dashPattern=8 8;exitX=0.5;exitY=1;exitDx=0;exitDy=0;" parent="1" target="PkqEq7SKZQYqKFuMM7tG-29" edge="1">
          <mxGeometry x="376.5711805555559" y="339.6971450617284" width="100" height="100" as="geometry">
            <mxPoint x="2533.5" y="-240" as="sourcePoint" />
            <mxPoint x="2535" y="1020" as="targetPoint" />
          </mxGeometry>
        </mxCell>
        <mxCell id="PkqEq7SKZQYqKFuMM7tG-29" value="" style="fillColor=#CC4125;strokeColor=#660000" parent="1" vertex="1">
          <mxGeometry x="2530" y="-60" width="10" height="10" as="geometry" />
        </mxCell>
        <mxCell id="PkqEq7SKZQYqKFuMM7tG-31" value="Create" style="edgeStyle=none;verticalLabelPosition=top;verticalAlign=bottom;fontSize=9;endArrow=classic;endFill=1;" parent="1" edge="1">
          <mxGeometry width="100" height="100" as="geometry">
            <mxPoint x="2267.5" y="-75.34" as="sourcePoint" />
            <mxPoint x="2400" y="-75" as="targetPoint" />
            <mxPoint x="-44" as="offset" />
          </mxGeometry>
        </mxCell>
        <mxCell id="PkqEq7SKZQYqKFuMM7tG-34" value="Create" style="edgeStyle=none;verticalLabelPosition=top;verticalAlign=bottom;fontSize=9;endArrow=classic;endFill=1;" parent="1" edge="1">
          <mxGeometry width="100" height="100" as="geometry">
            <mxPoint x="2267.5" y="-55.2" as="sourcePoint" />
            <mxPoint x="2530" y="-55.2" as="targetPoint" />
            <mxPoint x="-44" as="offset" />
          </mxGeometry>
        </mxCell>
        <mxCell id="PkqEq7SKZQYqKFuMM7tG-36" value="" style="endArrow=classic;html=1;rounded=0;entryX=0.132;entryY=0.13;entryDx=0;entryDy=0;entryPerimeter=0;" parent="1" edge="1">
          <mxGeometry width="50" height="50" relative="1" as="geometry">
            <mxPoint x="1430" y="790" as="sourcePoint" />
            <mxPoint x="1577.5000000000002" y="790.4000000000001" as="targetPoint" />
          </mxGeometry>
        </mxCell>
        <mxCell id="PkqEq7SKZQYqKFuMM7tG-37" value="Get Payment Methode" style="edgeLabel;html=1;align=center;verticalAlign=middle;resizable=0;points=[];" parent="PkqEq7SKZQYqKFuMM7tG-36" vertex="1" connectable="0">
          <mxGeometry x="0.2493" y="-1" relative="1" as="geometry">
            <mxPoint x="-22" y="-11" as="offset" />
          </mxGeometry>
        </mxCell>
        <mxCell id="PkqEq7SKZQYqKFuMM7tG-39" value="" style="edgeStyle=none;endArrow=none;dashed=1;dashPattern=8 8;" parent="1" source="7E_V4FD1QmApmL5yl7B_-149" target="PkqEq7SKZQYqKFuMM7tG-38" edge="1">
          <mxGeometry x="376.5711805555559" y="339.6971450617284" width="100" height="100" as="geometry">
            <mxPoint x="1583" y="720" as="sourcePoint" />
            <mxPoint x="1585" y="1330" as="targetPoint" />
          </mxGeometry>
        </mxCell>
        <mxCell id="PkqEq7SKZQYqKFuMM7tG-38" value="" style="fillColor=#CC4125;strokeColor=#660000" parent="1" vertex="1">
          <mxGeometry x="1577.5" y="790" width="10" height="50" as="geometry" />
        </mxCell>
        <mxCell id="PkqEq7SKZQYqKFuMM7tG-41" value="" style="edgeStyle=none;endArrow=none;dashed=1;dashPattern=8 8;exitX=0.5;exitY=1;exitDx=0;exitDy=0;" parent="1" source="PkqEq7SKZQYqKFuMM7tG-24" target="PkqEq7SKZQYqKFuMM7tG-40" edge="1">
          <mxGeometry x="376.5711805555559" y="339.6971450617284" width="100" height="100" as="geometry">
            <mxPoint x="2263" y="-40" as="sourcePoint" />
            <mxPoint x="2259" y="1480" as="targetPoint" />
          </mxGeometry>
        </mxCell>
        <mxCell id="PkqEq7SKZQYqKFuMM7tG-40" value="" style="fillColor=#CC4125;strokeColor=#660000" parent="1" vertex="1">
          <mxGeometry x="2255" y="795" width="10" height="40" as="geometry" />
        </mxCell>
        <mxCell id="PkqEq7SKZQYqKFuMM7tG-43" value="GetPaymentsMethods" style="edgeStyle=none;verticalLabelPosition=top;verticalAlign=bottom;fontSize=9;endArrow=classic;endFill=1;entryX=0;entryY=0;entryDx=0;entryDy=0;exitX=0.867;exitY=0.105;exitDx=0;exitDy=0;exitPerimeter=0;" parent="1" source="PkqEq7SKZQYqKFuMM7tG-38" edge="1">
          <mxGeometry width="100" height="100" as="geometry">
            <mxPoint x="1724.75" y="795" as="sourcePoint" />
            <mxPoint x="2255.25" y="795" as="targetPoint" />
            <mxPoint x="-44" as="offset" />
          </mxGeometry>
        </mxCell>
        <mxCell id="PkqEq7SKZQYqKFuMM7tG-44" value="List Payments Methodes" style="edgeStyle=none;verticalLabelPosition=top;verticalAlign=bottom;fontSize=9;endArrow=none;endFill=0;entryX=0;entryY=0;entryDx=0;entryDy=0;exitX=0.867;exitY=0.105;exitDx=0;exitDy=0;exitPerimeter=0;dashed=1;startArrow=open;startFill=0;" parent="1" edge="1">
          <mxGeometry width="100" height="100" as="geometry">
            <mxPoint x="1585.75" y="834" as="sourcePoint" />
            <mxPoint x="2255" y="834" as="targetPoint" />
            <mxPoint x="-44" as="offset" />
          </mxGeometry>
        </mxCell>
        <mxCell id="PkqEq7SKZQYqKFuMM7tG-45" value="" style="edgeStyle=none;endArrow=none;dashed=1;dashPattern=8 8;exitX=0.5;exitY=1;exitDx=0;exitDy=0;" parent="1" source="PkqEq7SKZQYqKFuMM7tG-27" target="wDXu1goecoh-welNa3HZ-94" edge="1">
          <mxGeometry x="376.5711805555559" y="339.6971450617284" width="100" height="100" as="geometry">
            <mxPoint x="2403" y="-70" as="sourcePoint" />
            <mxPoint x="2400" y="1470" as="targetPoint" />
          </mxGeometry>
        </mxCell>
        <mxCell id="wDXu1goecoh-welNa3HZ-94" value="" style="fillColor=#CC4125;strokeColor=#660000;movable=1;resizable=1;rotatable=1;deletable=1;editable=1;locked=0;connectable=1;" parent="1" vertex="1">
          <mxGeometry x="2397.5" y="1110" width="10" height="110" as="geometry" />
        </mxCell>
        <mxCell id="PkqEq7SKZQYqKFuMM7tG-50" value="" style="edgeStyle=none;endArrow=none;dashed=1;dashPattern=8 8;exitX=0.5;exitY=1;exitDx=0;exitDy=0;" parent="1" source="PkqEq7SKZQYqKFuMM7tG-40" target="PkqEq7SKZQYqKFuMM7tG-49" edge="1">
          <mxGeometry x="376.5711805555559" y="339.6971450617284" width="100" height="100" as="geometry">
            <mxPoint x="2260" y="835" as="sourcePoint" />
            <mxPoint x="2259" y="1480" as="targetPoint" />
          </mxGeometry>
        </mxCell>
        <mxCell id="PkqEq7SKZQYqKFuMM7tG-49" value="" style="fillColor=#CC4125;strokeColor=#660000" parent="1" vertex="1">
          <mxGeometry x="2255" y="1090" width="10" height="140" as="geometry" />
        </mxCell>
        <mxCell id="PkqEq7SKZQYqKFuMM7tG-54" value="" style="endArrow=classic;html=1;rounded=0;entryX=0;entryY=0;entryDx=0;entryDy=0;exitX=0.964;exitY=0.473;exitDx=0;exitDy=0;exitPerimeter=0;" parent="1" source="wDXu1goecoh-welNa3HZ-78" target="PkqEq7SKZQYqKFuMM7tG-49" edge="1">
          <mxGeometry width="50" height="50" relative="1" as="geometry">
            <mxPoint x="1600" y="1090" as="sourcePoint" />
            <mxPoint x="2250" y="1090" as="targetPoint" />
          </mxGeometry>
        </mxCell>
        <mxCell id="PkqEq7SKZQYqKFuMM7tG-55" value="MakePaymentTroughReception" style="edgeLabel;html=1;align=center;verticalAlign=middle;resizable=0;points=[];" parent="PkqEq7SKZQYqKFuMM7tG-54" vertex="1" connectable="0">
          <mxGeometry x="0.6855" y="3" relative="1" as="geometry">
            <mxPoint x="9" y="-7" as="offset" />
          </mxGeometry>
        </mxCell>
        <mxCell id="PkqEq7SKZQYqKFuMM7tG-56" value="" style="endArrow=open;html=1;rounded=0;exitX=0.955;exitY=0.152;exitDx=0;exitDy=0;entryX=0;entryY=0;entryDx=0;entryDy=0;exitPerimeter=0;endFill=0;" parent="1" source="PkqEq7SKZQYqKFuMM7tG-49" target="wDXu1goecoh-welNa3HZ-94" edge="1">
          <mxGeometry width="50" height="50" relative="1" as="geometry">
            <mxPoint x="2130" y="1050" as="sourcePoint" />
            <mxPoint x="2180" y="1000" as="targetPoint" />
          </mxGeometry>
        </mxCell>
        <mxCell id="PkqEq7SKZQYqKFuMM7tG-58" value="NotifyReception" style="edgeLabel;html=1;align=center;verticalAlign=middle;resizable=0;points=[];" parent="PkqEq7SKZQYqKFuMM7tG-56" vertex="1" connectable="0">
          <mxGeometry x="-0.3658" y="-2" relative="1" as="geometry">
            <mxPoint x="24" y="-13" as="offset" />
          </mxGeometry>
        </mxCell>
        <mxCell id="PkqEq7SKZQYqKFuMM7tG-57" value="" style="endArrow=open;html=1;rounded=0;exitX=1.027;exitY=0.349;exitDx=0;exitDy=0;exitPerimeter=0;entryX=0;entryY=0;entryDx=0;entryDy=0;endFill=0;" parent="1" source="PkqEq7SKZQYqKFuMM7tG-49" target="wDXu1goecoh-welNa3HZ-92" edge="1">
          <mxGeometry width="50" height="50" relative="1" as="geometry">
            <mxPoint x="2130" y="1050" as="sourcePoint" />
            <mxPoint x="2180" y="1000" as="targetPoint" />
          </mxGeometry>
        </mxCell>
        <mxCell id="PkqEq7SKZQYqKFuMM7tG-59" value="SendPaymentRemainderToUser" style="edgeLabel;html=1;align=center;verticalAlign=middle;resizable=0;points=[];labelBackgroundColor=none;" parent="PkqEq7SKZQYqKFuMM7tG-57" vertex="1" connectable="0">
          <mxGeometry x="-0.261" y="2" relative="1" as="geometry">
            <mxPoint x="27" y="-7" as="offset" />
          </mxGeometry>
        </mxCell>
        <mxCell id="PkqEq7SKZQYqKFuMM7tG-60" value="" style="endArrow=open;html=1;rounded=0;endFill=0;exitX=0.9;exitY=0.574;exitDx=0;exitDy=0;exitPerimeter=0;" parent="1" source="wDXu1goecoh-welNa3HZ-110" edge="1">
          <mxGeometry width="50" height="50" relative="1" as="geometry">
            <mxPoint x="1730" y="1464.57" as="sourcePoint" />
            <mxPoint x="2260" y="1465" as="targetPoint" />
          </mxGeometry>
        </mxCell>
        <mxCell id="PkqEq7SKZQYqKFuMM7tG-61" value="Destroy" style="text;html=1;align=center;verticalAlign=middle;resizable=0;points=[];autosize=1;strokeColor=none;fillColor=none;" parent="1" vertex="1">
          <mxGeometry x="1927.5" y="1438" width="60" height="30" as="geometry" />
        </mxCell>
        <mxCell id="PkqEq7SKZQYqKFuMM7tG-63" value="" style="edgeStyle=none;endArrow=none;dashed=1;dashPattern=8 8;exitX=0.5;exitY=1;exitDx=0;exitDy=0;" parent="1" source="PkqEq7SKZQYqKFuMM7tG-49" target="PkqEq7SKZQYqKFuMM7tG-62" edge="1">
          <mxGeometry x="376.5711805555559" y="339.6971450617284" width="100" height="100" as="geometry">
            <mxPoint x="2260" y="1230" as="sourcePoint" />
            <mxPoint x="2259" y="1480" as="targetPoint" />
          </mxGeometry>
        </mxCell>
        <mxCell id="PkqEq7SKZQYqKFuMM7tG-62" value="" style="shape=mxgraph.sysml.x;" parent="1" vertex="1">
          <mxGeometry x="2250" y="1540" width="20" height="30" as="geometry" />
        </mxCell>
        <mxCell id="WzeVtz9jsi48SjQcjpXO-2" value="" style="fillColor=#CC4125;strokeColor=#660000" parent="1" vertex="1">
          <mxGeometry x="2255" y="1458" width="10" height="82" as="geometry" />
        </mxCell>
      </root>
    </mxGraphModel>
  </diagram>
</mxfile>
